PathFileType	4	(X/Y/Z)	S00_P00_T01_BalancingTrial_0-100.trc
DataRate	CameraRate	NumFrames	NumMarkers	Units	OrigDataRate	OrigDataStartFrame	OrigNumFrames
60	60	9	21	m	60	75	100
Frame#	Time	RHip			RKnee			RAnkle			RBigToe			RSmallToe			RHeel			LHip			LKnee			LAnkle			LBigToe			LSmallToe			LHeel			Neck			Head			Nose			RShoulder			RElbow			RWrist			LShoulder			LElbow			LWrist		
		X1	Y1	Z1	X2	Y2	Z2	X3	Y3	Z3	X4	Y4	Z4	X5	Y5	Z5	X6	Y6	Z6	X7	Y7	Z7	X8	Y8	Z8	X9	Y9	Z9	X10	Y10	Z10	X11	Y11	Z11	X12	Y12	Z12	X13	Y13	Z13	X14	Y14	Z14	X15	Y15	Z15	X16	Y16	Z16	X17	Y17	Z17	X18	Y18	Z18	X19	Y19	Z19	X20	Y20	Z20	X21	Y21	Z21
76	1.2666666666666666	-0.16864114116729326	0.9404457482171358	-0.8388116848761057	-0.12155941383514825	0.5422328818367356	-0.7501771335495524	-0.06578661513169548	0.1393655550006619	-0.7506571560802073	-0.05910597996081163	0.0457608885011199	-0.6226423202740686	-0.0912351077046472	0.050723392099022366	-0.6172224853236997	-0.05409857929338949	0.09621037658691715	-0.7697215040445926	0.024553239546754074	0.8905048954192337	-0.9363109580061655	-0.002291565602348876	0.51311480570114	-0.9036971707538914	-0.027267612596708103	0.1542331726532746	-1.1516150324400463	0.0005154615335417252	0.07135546663015062	-0.9820801558497503	0.013792696047937645	0.0724013962421716	-1.044501432168034	-0.034176088576870024	0.14584704694321843	-1.1300416312273496	0.08715641001102685	1.4038499783752854	-0.7651237662824955	0.21532553537962124	1.6102684473068534	-0.5625388179078253	0.1565876341101058	1.4454188754252097	-0.5892184069805164	-0.07017581588527472	1.4417661368789576	-0.7370520260211982	-0.33741003471254305	1.381326262464315	-0.7864956481147325	-0.29861468809559144	1.4605663836732508	-0.5552409772917641	0.22416151240529966	1.3292647939642241	-0.8608131525656821	0.3529471184061829	1.0843966849944462	-0.9646625101614597	0.4667664220412685	0.8685300758923217	-0.8381201887528253
77	1.2833333333333334	-0.15993516037381644	0.9344797147424684	-0.8256260733400111	-0.1126078174234864	0.5404087107075067	-0.7351784902496893	-0.05827999850963385	0.13393266012800528	-0.7552852587809735	-0.05735007991241358	0.04010974329617035	-0.6288305144797314	-0.08379249175454548	0.043505788022394375	-0.623149202851982	-0.045841119470400864	0.08986281714263633	-0.7803063790321872	0.03343302959284387	0.8873617492615624	-0.9171725440410069	0.0017960049560429188	0.5076671440508043	-0.9028476434708486	-0.026970377112630374	0.15748072663664514	-1.1502335108767041	0.002292650090610696	0.07186857218146099	-0.9829510391317633	0.014356637874780372	0.07327571066883533	-1.0439496888036992	-0.034729555373547404	0.150396398420147	-1.1357627640243846	0.07639246964480832	1.4088709538252309	-0.7550460141220705	0.19409803981616172	1.6181675492382108	-0.5533953961318016	0.14222717497636625	1.4560126746114121	-0.5805972336546412	-0.08489624071374033	1.437335400136709	-0.7352332112712567	-0.3480764164260194	1.3678705388559012	-0.7714654328374211	-0.32093480560232257	1.4440741039483291	-0.5545682902943088	0.2206709046869485	1.3390482028759916	-0.8407910304558349	0.3565878030733024	1.101950598954826	-0.9577891035017151	0.47816205355671937	0.8923550136174123	-0.8382090335089847
78	1.3	-0.151671313922711	0.9286372709588294	-0.813531803481396	-0.10624655499420795	0.5379265643652292	-0.7217974832339458	-0.053664605440358865	0.1294541316747753	-0.7578695296322562	-0.055973899568451835	0.03661948536374572	-0.6314918963932934	-0.07851033467154904	0.038125138918805895	-0.6263333189915579	-0.040852533982256696	0.08574036528659516	-0.7868351793158934	0.041981762687997935	0.8855333636223046	-0.8976704929912628	0.006223689496410157	0.5013856777711945	-0.9009324369458294	-0.025617113995670595	0.1619914737539653	-1.1480733542935033	0.003291401990776018	0.07239227945523986	-0.9841895818535792	0.014233846206402587	0.07504752951149585	-1.0432512512752479	-0.03462362802370347	0.15549164551236122	-1.1436249621506382	0.06471022245365828	1.4129985436229167	-0.743786604917896	0.1715572825275229	1.625041403669974	-0.5457047489610104	0.12654652645732137	1.4653392482700154	-0.571893249970359	-0.09988423371948756	1.4325076008631972	-0.7349529722987416	-0.35777568510290986	1.3544989861320413	-0.7558323638334611	-0.34348761088596697	1.428202444545466	-0.5546122076435509	0.21547713587277517	1.349065433887962	-0.82322849002669	0.36178916182874354	1.1211410182249635	-0.94485865506434	0.4909792645030858	0.9197017263824099	-0.8380071736001957
79	1.3166666666666669	-0.14430843666335544	0.9233514610864677	-0.8026167900019104	-0.10183913070666942	0.5357201119239748	-0.709288311069393	-0.05150107609815126	0.12627653693815777	-0.7584674924794093	-0.05464208120666688	0.03533879438965351	-0.6308770341604393	-0.07543050368616758	0.0345640391862761	-0.6271662869151035	-0.03873814001557	0.08351425130315329	-0.7899967931712998	0.05052369254864006	0.8852524669676991	-0.8781334138425956	0.011541451913186878	0.495214346302315	-0.8969196868895831	-0.02296370127601247	0.16829685688511117	-1.1441426444929825	0.0037353517024354024	0.07316060575694411	-0.9854287387834932	0.013657024884024762	0.07821941258964413	-1.0408300157555028	-0.033412190209857605	0.1612380888949467	-1.1528558836953273	0.05256097609895609	1.4159292890366444	-0.731951492454017	0.14745959142766915	1.6309689452281688	-0.5381399977289821	0.10940274299546861	1.472942694944478	-0.5622294123899892	-0.1145825015312329	1.427919017474281	-0.7327214231486631	-0.36596427950003785	1.3412915809476393	-0.7412125867845459	-0.36556291905873867	1.4119380860261437	-0.553255647268034	0.20723091982436215	1.3590565156599026	-0.8121611547486766	0.3675024344736154	1.142891822588685	-0.9282908864424879	0.5051981453237507	0.9512955706361552	-0.8357542722861234
80	1.3333333333333333	-0.13776307935175086	0.918939422185787	-0.7929299120963146	-0.0984886327869415	0.534259600634402	-0.6972491158783511	-0.05103780527930069	0.12434028335478693	-0.7578285050154397	-0.053767605179951716	0.03560280876786819	-0.6282799076784136	-0.0740809828248885	0.032121195938692886	-0.6267614302553325	-0.038446068052523194	0.08272936685583338	-0.7911400045891037	0.05903719217869863	0.8864363028496028	-0.8595822666820452	0.01813852663803548	0.4903395985670499	-0.88911130879305	-0.01887584900857098	0.17674327798159334	-1.1371919873239078	0.0038829756711532405	0.07431997678347772	-0.9860864186066745	0.013028158906483258	0.08296822985437954	-1.0353362002039173	-0.030475853000243414	0.16776809223728142	-1.1616702340101217	0.04060720232845789	1.4176041864507392	-0.720342143974901	0.12156277585879734	1.6359301138449271	-0.5291108806717691	0.09094770974753563	1.4789588991599532	-0.5507707413251349	-0.12831768096863375	1.42424434499927	-0.7252142873592642	-0.37237562376256717	1.328049173617986	-0.7291926549148353	-0.3866275008981844	1.3943939857410894	-0.5487400570465042	0.19591831697362425	1.3689532805836147	-0.8077793810524462	0.3723571667466906	1.1677668295864314	-0.9113664483180377	0.5206636644116271	0.9871037529388484	-0.8308617338519939
81	1.35	-0.13140985404787808	0.9154998055238375	-0.7842470581232875	-0.09536120640430187	0.5331406078966084	-0.6862892131238377	-0.05142457864136344	0.12341763350625876	-0.7568404729226147	-0.05350248050953561	0.03650062104764876	-0.6244992719081104	-0.07398072541467689	0.030323072218172282	-0.626355008468116	-0.038664188083662475	0.08301870809720496	-0.7914350284314208	0.06726359135835629	0.8886943315921976	-0.8432677492295028	0.02610979667129125	0.4875064406567116	-0.8759539405373029	-0.013283851122929223	0.18727774113687312	-1.1261451956586963	0.004085302798622238	0.07597734863577595	-0.9852250728206663	0.012969146502308019	0.08910067185411169	-1.0263780817786345	-0.025341138312680263	0.17558591534277868	-1.1670534976647873	0.029436870012588722	1.4182159203801774	-0.7095175009070802	0.09425458350486533	1.639781916031032	-0.517816064606892	0.07198384697205944	1.483734884720045	-0.5375436532403219	-0.14058163289407477	1.421702075067093	-0.7113678993863676	-0.3773624909763763	1.3145152745603361	-0.7196595972664679	-0.4062644352818122	1.3753718953526923	-0.5401836800459296	0.18254678322209988	1.378759488316905	-0.8074000599452829	0.3752993300832953	1.1956597501915698	-0.8960662185500128	0.5371182039008492	1.0264438487777454	-0.8234793196885901
82	1.3666666666666667	-0.12450111842313416	0.9129775510135716	-0.7759414067724597	-0.09240254360550394	0.5309629319708128	-0.6786105817241607	-0.05194947882834828	0.12350531921532178	-0.7560067765960491	-0.05354408265529453	0.037369534599812744	-0.6197447905613492	-0.07491128546213402	0.02930822850616473	-0.6267853274441546	-0.038470309707092996	0.08425332205589227	-0.7915962922486451	0.07576565940159154	0.8910999945175485	-0.8278505144951973	0.03518257913351445	0.48675161239286313	-0.856741395966134	-0.00633122806872599	0.19931958521753612	-1.1104130996432506	0.004878034989727098	0.07831099334668817	-0.9814669568678495	0.014278747996926529	0.09610418118016888	-1.0146354718053894	-0.017975607392413925	0.18527059160469908	-1.1654847423758985	0.019266439059435248	1.4181670799373678	-0.6993375771044748	0.06663887221018899	1.6425400178257858	-0.5042854196251253	0.053493852240014725	1.4874639203072937	-0.5233248725307421	-0.15135250238143477	1.4198626043528264	-0.6931344208838669	-0.3817771684340071	1.3005523043878564	-0.7115224600113612	-0.4236731910958678	1.3551061910645903	-0.5264922301491998	0.16850317728688205	1.3883035469489615	-0.8073051500761741	0.3763294264112357	1.2259153310770226	-0.8808703602760161	0.5539452458418286	1.0685137879990296	-0.8133302997958154
83	1.3833333333333333	-0.11657590035566308	0.9112054007760809	-0.7670774518198831	-0.09033826711948385	0.5264343780684426	-0.67654787286661	-0.05224229124938704	0.12476817763808126	-0.7553624928006355	-0.05370119911134767	0.03793671330829018	-0.6145695024378243	-0.07673752813558866	0.0292479579367161	-0.6282282259458897	-0.03765021083772739	0.08650484095539329	-0.7919817965345856	0.08574352366863813	0.8925732547083495	-0.8099484491345457	0.04470003127194621	0.4877537845788575	-0.8319275801248387	0.0015236949716784715	0.21179521022748943	-1.0900918363779029	0.006915502044168846	0.08168325041323722	-0.9731951988337109	0.017818070313574193	0.10343157854463912	-1.0012000766262714	-0.008853629438721564	0.1966404085705092	-1.1546631952607298	0.009692053843479511	1.4180157524738333	-0.6887618179933895	0.04001659953588402	1.6443475792881495	-0.48903596290713197	0.035893255819921345	1.4901882912994475	-0.508699570697933	-0.16113022963071105	1.4178249440871582	-0.6740653586442064	-0.38646933688025586	1.286117597513404	-0.7043386406039096	-0.43831866549246834	1.333928756035122	-0.5073476777993454	0.15497160314628985	1.3972464430128437	-0.8042647472883898	0.3764711344427691	1.2575134980155758	-0.8612965359606576	0.5699655043364177	1.1128655206574298	-0.7997009478323948
84	1.4	-0.10767027699771277	0.909956262978074	-0.7568765072758643	-0.08949073587267417	0.5198743670846561	-0.6796785636926089	-0.052345539326956285	0.12725465642818945	-0.7547191906985343	-0.05399874286394006	0.03821167036091621	-0.6098812840013144	-0.07937171965132744	0.030054976732715056	-0.630429497371946	-0.03657671211645568	0.08988489817471905	-0.7927978904043858	0.09735784645256579	0.8927941058379204	-0.7888025557754424	0.05389815122159353	0.4902273590910577	-0.803023993960433	0.009673289567770551	0.22331495381563368	-1.0657756820999533	0.010761694417555444	0.0864877275929411	-0.9589816971622285	0.02433052286509177	0.1105247234849143	-0.9870464600344007	0.0012649291664591537	0.20837832592544953	-1.1345278383554838	-0.00011476555363601677	1.418256007545048	-0.6764040589330013	0.015277562094786529	1.6452074209627963	-0.4728384022469522	0.018989052093626765	1.4918898814798425	-0.4936884188258144	-0.17061448668966211	1.4146340160649338	-0.657326766224559	-0.3917710512742887	1.2711724319161022	-0.6987475027780721	-0.45122677537084066	1.3121686811274293	-0.48520354726863546	0.14269392863696778	1.4053453813212853	-0.7964639686196383	0.37636099661229944	1.2892256821059624	-0.8342713837069026	0.5838808792112623	1.15923531649099	-0.7824815598853345
